<svg xmlns="http://www.w3.org/2000/svg" viewBox="57.54 -28.96 1137.92 1137.92" role="img" aria-label="Yeliztli"><title>Yeliztli</title><path fill="#0D9488" fill-rule="evenodd" d="M 559 32 L 695 32 L 695 78 L 762 78 L 762 155 L 829 155 L 829 227 L 826 267 L 814 308 L 794 345 L 777 367 L 730 411 L 675 450 L 585 507 L 557 529 L 533 553 L 514 578 L 499 606 L 488 642 L 488 684 L 496 711 L 507 734 L 532 769 L 554 791 L 579 811 L 590 817 L 591 820 L 538 852 L 514 874 L 504 892 L 501 916 L 462 916 L 462 934 L 565 935 L 566 982 L 602 982 L 602 1014 L 651 1014 L 652 982 L 688 982 L 688 935 L 792 934 L 792 916 L 752 916 L 750 894 L 738 873 L 700 842 L 662 820 L 662 818 L 684 804 L 704 787 L 723 767 L 740 744 L 754 718 L 761 699 L 766 670 L 766 651 L 762 629 L 754 605 L 733 567 L 719 549 L 694 524 L 674 508 L 657 498 L 656 495 L 705 463 L 710 462 L 740 486 L 762 509 L 794 557 L 809 595 L 816 624 L 818 675 L 815 696 L 806 729 L 789 766 L 763 803 L 748 819 L 764 830 L 784 851 L 793 868 L 797 887 L 830 887 L 830 966 L 724 966 L 724 1015 L 683 1015 L 683 1048 L 571 1048 L 570 1015 L 529 1015 L 529 966 L 424 966 L 424 887 L 457 887 L 460 868 L 468 852 L 487 831 L 505 818 L 479 787 L 462 760 L 450 733 L 442 707 L 438 685 L 437 645 L 442 612 L 455 572 L 477 533 L 495 510 L 520 485 L 562 453 L 677 379 L 713 351 L 736 329 L 753 308 L 766 287 L 774 269 L 781 244 L 784 216 L 783 190 L 724 190 L 724 115 L 667 115 L 660 89 L 658 71 L 596 71 L 587 115 L 530 115 L 530 190 L 470 191 L 470 216 L 473 244 L 478 263 L 487 286 L 499 307 L 516 329 L 537 350 L 598 396 L 547 429 L 499 393 L 475 369 L 460 350 L 440 315 L 432 293 L 424 251 L 424 155 L 491 155 L 492 78 L 558 78 Z M 855 284 L 922 284 L 922 381 L 1019 381 L 1019 467 L 1119 467 L 1119 653 L 1019 654 L 1020 750 L 923 750 L 922 835 L 855 835 L 855 707 L 975 707 L 976 611 L 1068 611 L 1068 508 L 975 508 L 975 426 L 855 426 Z M 331 284 L 397 284 L 397 426 L 278 426 L 278 508 L 185 508 L 185 611 L 278 611 L 278 707 L 397 707 L 397 835 L 331 835 L 330 750 L 234 750 L 234 653 L 134 653 L 134 467 L 234 467 L 234 381 L 331 381 Z M 319 461 L 465 461 L 466 484 L 441 520 L 427 554 L 402 554 L 401 508 L 361 508 L 361 624 L 401 624 L 400 668 L 319 668 Z M 790 461 L 936 461 L 936 668 L 855 668 L 855 624 L 894 624 L 894 508 L 854 508 L 854 553 L 829 554 L 814 519 L 799 495 L 790 485 Z M 505 227 L 749 227 L 749 232 L 740 259 L 514 259 L 506 239 Z M 518 669 L 734 669 L 735 673 L 726 701 L 526 701 L 520 685 Z M 535 601 L 717 601 L 729 623 L 731 633 L 522 634 L 521 630 L 524 621 Z M 619 861 L 639 862 L 653 869 L 664 881 L 670 896 L 670 912 L 663 929 L 651 941 L 638 947 L 622 948 L 604 942 L 591 930 L 584 915 L 583 899 L 589 882 L 599 870 Z M 619 112 L 638 113 L 654 121 L 665 134 L 670 148 L 670 163 L 665 177 L 655 189 L 637 198 L 622 199 L 604 193 L 590 180 L 584 166 L 583 152 L 589 133 L 601 120 Z M 536 295 L 718 295 L 718 298 L 707 313 L 692 327 L 562 327 L 545 311 L 536 299 Z M 553 737 L 700 737 L 703 741 L 678 769 L 576 770 L 551 743 L 550 740 Z M 585 535 L 668 535 L 684 551 L 694 565 L 559 566 L 565 555 Z M 992 538 L 1003 538 L 1010 541 L 1017 548 L 1020 556 L 1020 565 L 1017 573 L 1011 579 L 1001 583 L 994 583 L 984 579 L 979 574 L 975 564 L 978 548 L 985 541 Z M 250 538 L 261 538 L 270 542 L 278 556 L 278 565 L 275 573 L 269 579 L 259 583 L 249 582 L 241 578 L 237 574 L 233 564 L 233 557 L 237 547 Z M 621 887 L 610 898 L 610 911 L 618 920 L 630 922 L 642 914 L 644 900 L 641 893 L 635 888 Z M 623 138 L 612 145 L 609 152 L 609 159 L 612 166 L 618 171 L 623 173 L 634 172 L 640 168 L 644 161 L 644 150 L 636 140 Z"/></svg>
